# MagicaVoxel @ Ephtracy

# group
o 

# material
mtllib Machine Gun Barrel.mtl
usemtl palette

# normals
vn -1 0 0
vn 1 0 0
vn 0 0 1
vn 0 0 -1
vn 0 -1 0
vn 0 1 0

# texcoords
vt 0.427734 0.5
vt 0.986328 0.5

# verts
v -0.2 0 -0.7
v -0.2 0 -0.8
v -0.2 0 -1
v -0.2 0.1 0.5
v -0.2 0.1 0.3
v -0.2 0.1 -0.5
v -0.2 0.1 -0.7
v -0.2 0.2 0.5
v -0.2 0.2 0.3
v -0.2 0.2 -0.5
v -0.2 0.2 -0.7
v -0.2 0.3 -0.7
v -0.2 0.3 -0.8
v -0.2 0.3 -1
v -0.1 0 0.5
v -0.1 0 0.3
v -0.1 0 -0.5
v -0.1 0 -0.7
v -0.1 0.1 0.5
v -0.1 0.1 0.3
v -0.1 0.1 -0.5
v -0.1 0.1 -0.7
v -0.1 0.2 0.5
v -0.1 0.2 0.3
v -0.1 0.2 -0.5
v -0.1 0.2 -0.7
v -0.1 0.3 0.5
v -0.1 0.3 0.3
v -0.1 0.3 -0.5
v -0.1 0.3 -0.7
v 0 0.1 0.5
v 0 0.1 0.3
v 0 0.2 0.5
v 0 0.2 0.3
v -0.1 0.1 0.5
v -0.1 0.1 0.3
v -0.1 0.2 0.5
v -0.1 0.2 0.3
v 0 0 0.5
v 0 0 0.3
v 0 0 -0.5
v 0 0 -0.7
v 0 0.1 0.5
v 0 0.1 0.3
v 0 0.1 -0.5
v 0 0.1 -0.7
v 0 0.2 0.5
v 0 0.2 0.3
v 0 0.2 -0.5
v 0 0.2 -0.7
v 0 0.3 0.5
v 0 0.3 0.3
v 0 0.3 -0.5
v 0 0.3 -0.7
v 0.1 0 -0.7
v 0.1 0 -0.8
v 0.1 0 -1
v 0.1 0.1 0.5
v 0.1 0.1 0.3
v 0.1 0.1 -0.5
v 0.1 0.1 -0.7
v 0.1 0.2 0.5
v 0.1 0.2 0.3
v 0.1 0.2 -0.5
v 0.1 0.2 -0.7
v 0.1 0.3 -0.7
v 0.1 0.3 -0.8
v 0.1 0.3 -1
v -0.2 0.1 0.5
v -0.2 0.2 0.5
v -0.1 0 0.5
v -0.1 0.1 0.5
v -0.1 0.2 0.5
v -0.1 0.3 0.5
v 0 0 0.5
v 0 0.1 0.5
v 0 0.2 0.5
v 0 0.3 0.5
v 0.1 0.1 0.5
v 0.1 0.2 0.5
v -0.1 0.1 0.3
v -0.1 0.2 0.3
v 0 0.1 0.3
v 0 0.2 0.3
v -0.2 0.1 -0.5
v -0.2 0.2 -0.5
v -0.1 0 -0.5
v -0.1 0.1 -0.5
v -0.1 0.2 -0.5
v -0.1 0.3 -0.5
v 0 0 -0.5
v 0 0.1 -0.5
v 0 0.2 -0.5
v 0 0.3 -0.5
v 0.1 0.1 -0.5
v 0.1 0.2 -0.5
v -0.2 0 -0.7
v -0.2 0.1 -0.7
v -0.2 0.2 -0.7
v -0.2 0.3 -0.7
v -0.1 0 -0.7
v -0.1 0.1 -0.7
v -0.1 0.2 -0.7
v -0.1 0.3 -0.7
v 0 0 -0.7
v 0 0.1 -0.7
v 0 0.2 -0.7
v 0 0.3 -0.7
v 0.1 0 -0.7
v 0.1 0.1 -0.7
v 0.1 0.2 -0.7
v 0.1 0.3 -0.7
v -0.2 0.1 0.3
v -0.2 0.2 0.3
v -0.1 0 0.3
v -0.1 0.1 0.3
v -0.1 0.2 0.3
v -0.1 0.3 0.3
v 0 0 0.3
v 0 0.1 0.3
v 0 0.2 0.3
v 0 0.3 0.3
v 0.1 0.1 0.3
v 0.1 0.2 0.3
v -0.2 0 -1
v -0.2 0.3 -1
v 0.1 0 -1
v 0.1 0.3 -1
v -0.1 0 0.5
v 0 0 0.5
v -0.1 0 0.3
v 0 0 0.3
v -0.1 0 -0.5
v 0 0 -0.5
v -0.2 0 -0.7
v -0.1 0 -0.7
v 0 0 -0.7
v 0.1 0 -0.7
v -0.2 0 -0.8
v 0.1 0 -0.8
v -0.2 0 -1
v 0.1 0 -1
v -0.2 0.1 0.5
v -0.1 0.1 0.5
v 0 0.1 0.5
v 0.1 0.1 0.5
v -0.2 0.1 0.3
v -0.1 0.1 0.3
v 0 0.1 0.3
v 0.1 0.1 0.3
v -0.2 0.1 -0.5
v -0.1 0.1 -0.5
v 0 0.1 -0.5
v 0.1 0.1 -0.5
v -0.2 0.1 -0.7
v -0.1 0.1 -0.7
v 0 0.1 -0.7
v 0.1 0.1 -0.7
v -0.1 0.2 0.5
v 0 0.2 0.5
v -0.1 0.2 0.3
v 0 0.2 0.3
v -0.1 0.1 0.5
v 0 0.1 0.5
v -0.1 0.1 0.3
v 0 0.1 0.3
v -0.2 0.2 0.5
v -0.1 0.2 0.5
v 0 0.2 0.5
v 0.1 0.2 0.5
v -0.2 0.2 0.3
v -0.1 0.2 0.3
v 0 0.2 0.3
v 0.1 0.2 0.3
v -0.2 0.2 -0.5
v -0.1 0.2 -0.5
v 0 0.2 -0.5
v 0.1 0.2 -0.5
v -0.2 0.2 -0.7
v -0.1 0.2 -0.7
v 0 0.2 -0.7
v 0.1 0.2 -0.7
v -0.1 0.3 0.5
v 0 0.3 0.5
v -0.1 0.3 0.3
v 0 0.3 0.3
v -0.1 0.3 -0.5
v 0 0.3 -0.5
v -0.2 0.3 -0.7
v -0.1 0.3 -0.7
v 0 0.3 -0.7
v 0.1 0.3 -0.7
v -0.2 0.3 -0.8
v 0.1 0.3 -0.8
v -0.2 0.3 -1
v 0.1 0.3 -1

# faces
f 7/2/1 2/2/1 1/2/1
f 8/2/1 5/2/1 4/2/1
f 9/2/1 5/2/1 8/2/1
f 10/2/1 7/2/1 6/2/1
f 11/2/1 2/2/1 7/2/1
f 11/2/1 7/2/1 10/2/1
f 12/2/1 2/2/1 11/2/1
f 13/1/1 3/1/1 2/1/1
f 13/2/1 2/2/1 12/2/1
f 14/1/1 3/1/1 13/1/1
f 19/2/1 16/2/1 15/2/1
f 20/2/1 16/2/1 19/2/1
f 21/2/1 18/2/1 17/2/1
f 22/2/1 18/2/1 21/2/1
f 24/2/1 21/2/1 20/2/1
f 25/2/1 21/2/1 24/2/1
f 27/2/1 24/2/1 23/2/1
f 28/2/1 24/2/1 27/2/1
f 29/2/1 26/2/1 25/2/1
f 30/2/1 26/2/1 29/2/1
f 33/2/1 32/2/1 31/2/1
f 34/2/1 32/2/1 33/2/1
f 35/2/2 36/2/2 37/2/2
f 37/2/2 36/2/2 38/2/2
f 39/2/2 40/2/2 43/2/2
f 43/2/2 40/2/2 44/2/2
f 41/2/2 42/2/2 45/2/2
f 45/2/2 42/2/2 46/2/2
f 44/2/2 45/2/2 48/2/2
f 48/2/2 45/2/2 49/2/2
f 47/2/2 48/2/2 51/2/2
f 51/2/2 48/2/2 52/2/2
f 49/2/2 50/2/2 53/2/2
f 53/2/2 50/2/2 54/2/2
f 55/2/2 56/2/2 61/2/2
f 58/2/2 59/2/2 62/2/2
f 62/2/2 59/2/2 63/2/2
f 60/2/2 61/2/2 64/2/2
f 61/2/2 56/2/2 65/2/2
f 64/2/2 61/2/2 65/2/2
f 65/2/2 56/2/2 66/2/2
f 56/1/2 57/1/2 67/1/2
f 66/2/2 56/2/2 67/2/2
f 67/1/2 57/1/2 68/1/2
f 72/2/3 70/2/3 69/2/3
f 73/2/3 70/2/3 72/2/3
f 75/2/3 72/2/3 71/2/3
f 76/2/3 72/2/3 75/2/3
f 77/2/3 74/2/3 73/2/3
f 78/2/3 74/2/3 77/2/3
f 79/2/3 77/2/3 76/2/3
f 80/2/3 77/2/3 79/2/3
f 83/2/3 82/2/3 81/2/3
f 84/2/3 82/2/3 83/2/3
f 88/2/3 86/2/3 85/2/3
f 89/2/3 86/2/3 88/2/3
f 91/2/3 88/2/3 87/2/3
f 92/2/3 88/2/3 91/2/3
f 93/2/3 90/2/3 89/2/3
f 94/2/3 90/2/3 93/2/3
f 95/2/3 93/2/3 92/2/3
f 96/2/3 93/2/3 95/2/3
f 101/2/3 98/2/3 97/2/3
f 102/2/3 98/2/3 101/2/3
f 103/2/3 100/2/3 99/2/3
f 104/2/3 100/2/3 103/2/3
f 109/2/3 106/2/3 105/2/3
f 110/2/3 106/2/3 109/2/3
f 111/2/3 108/2/3 107/2/3
f 112/2/3 108/2/3 111/2/3
f 113/2/4 114/2/4 116/2/4
f 116/2/4 114/2/4 117/2/4
f 115/2/4 116/2/4 119/2/4
f 119/2/4 116/2/4 120/2/4
f 117/2/4 118/2/4 121/2/4
f 121/2/4 118/2/4 122/2/4
f 120/2/4 121/2/4 123/2/4
f 123/2/4 121/2/4 124/2/4
f 125/1/4 126/1/4 127/1/4
f 127/1/4 126/1/4 128/1/4
f 131/2/5 130/2/5 129/2/5
f 132/2/5 130/2/5 131/2/5
f 136/2/5 134/2/5 133/2/5
f 137/2/5 134/2/5 136/2/5
f 139/2/5 137/2/5 136/2/5
f 139/2/5 138/2/5 137/2/5
f 139/2/5 136/2/5 135/2/5
f 140/2/5 138/2/5 139/2/5
f 141/1/5 140/1/5 139/1/5
f 142/1/5 140/1/5 141/1/5
f 147/2/5 144/2/5 143/2/5
f 148/2/5 144/2/5 147/2/5
f 149/2/5 146/2/5 145/2/5
f 150/2/5 146/2/5 149/2/5
f 152/2/5 149/2/5 148/2/5
f 153/2/5 149/2/5 152/2/5
f 155/2/5 152/2/5 151/2/5
f 156/2/5 152/2/5 155/2/5
f 157/2/5 154/2/5 153/2/5
f 158/2/5 154/2/5 157/2/5
f 161/2/5 160/2/5 159/2/5
f 162/2/5 160/2/5 161/2/5
f 163/2/6 164/2/6 165/2/6
f 165/2/6 164/2/6 166/2/6
f 167/2/6 168/2/6 171/2/6
f 171/2/6 168/2/6 172/2/6
f 169/2/6 170/2/6 173/2/6
f 173/2/6 170/2/6 174/2/6
f 172/2/6 173/2/6 176/2/6
f 176/2/6 173/2/6 177/2/6
f 175/2/6 176/2/6 179/2/6
f 179/2/6 176/2/6 180/2/6
f 177/2/6 178/2/6 181/2/6
f 181/2/6 178/2/6 182/2/6
f 183/2/6 184/2/6 185/2/6
f 185/2/6 184/2/6 186/2/6
f 187/2/6 188/2/6 190/2/6
f 190/2/6 188/2/6 191/2/6
f 190/2/6 191/2/6 193/2/6
f 191/2/6 192/2/6 193/2/6
f 189/2/6 190/2/6 193/2/6
f 193/2/6 192/2/6 194/2/6
f 193/1/6 194/1/6 195/1/6
f 195/1/6 194/1/6 196/1/6
